<mxfile host="app.diagrams.net" agent="Mozilla/5.0 (Windows NT 10.0; Win64; x64; rv:128.0) Gecko/20100101 Firefox/128.0" scale="2" border="0" version="24.7.6">
  <diagram name="Page-1" id="c9db0220-8083-56f3-ca83-edcdcd058819">
    <mxGraphModel dx="2148" dy="1344" grid="1" gridSize="10" guides="1" tooltips="1" connect="1" arrows="1" fold="1" page="1" pageScale="1.5" pageWidth="826" pageHeight="1169" background="none" math="0" shadow="0">
      <root>
        <mxCell id="0" style=";html=1;" />
        <mxCell id="1" style=";html=1;" parent="0" />
        <mxCell id="3d76a8aef4d5c911-1" value="" style="html=1;shadow=0;dashed=0;shape=mxgraph.bootstrap.rect;fillColor=#222222;strokeColor=none;whiteSpace=wrap;rounded=0;fontSize=12;fontColor=#000000;align=center;" parent="1" vertex="1">
          <mxGeometry x="40" y="70" width="1150" height="40" as="geometry" />
        </mxCell>
        <mxCell id="3d76a8aef4d5c911-2" value="Hospital+ Home" style="html=1;shadow=0;dashed=0;fillColor=none;strokeColor=none;shape=mxgraph.bootstrap.rect;fontColor=#999999;fontSize=14;whiteSpace=wrap;" parent="3d76a8aef4d5c911-1" vertex="1">
          <mxGeometry width="130" height="40" as="geometry" />
        </mxCell>
        <mxCell id="3d76a8aef4d5c911-3" value="Patient Records" style="html=1;shadow=0;dashed=0;shape=mxgraph.bootstrap.rect;fillColor=#000000;strokeColor=none;fontColor=#ffffff;spacingRight=0;whiteSpace=wrap;align=center;" parent="3d76a8aef4d5c911-1" vertex="1">
          <mxGeometry x="130" width="140" height="40" as="geometry" />
        </mxCell>
        <mxCell id="3d76a8aef4d5c911-5" value="Insurance Providers" style="html=1;shadow=0;dashed=0;fillColor=none;strokeColor=none;shape=mxgraph.bootstrap.rect;fontColor=#999999;spacingRight=0;whiteSpace=wrap;" parent="3d76a8aef4d5c911-1" vertex="1">
          <mxGeometry x="270" width="150" height="40" as="geometry" />
        </mxCell>
        <mxCell id="3d76a8aef4d5c911-7" value="Procedure Records" style="html=1;shadow=0;dashed=0;fillColor=none;strokeColor=none;shape=mxgraph.bootstrap.rect;fontColor=#999999;whiteSpace=wrap;" parent="3d76a8aef4d5c911-1" vertex="1">
          <mxGeometry x="570" width="150" height="40" as="geometry" />
        </mxCell>
        <mxCell id="3d76a8aef4d5c911-8" value="Household Records" style="html=1;shadow=0;dashed=0;fillColor=none;strokeColor=none;shape=mxgraph.bootstrap.rect;fontColor=#999999;whiteSpace=wrap;" parent="3d76a8aef4d5c911-1" vertex="1">
          <mxGeometry x="420" width="150" height="40" as="geometry" />
        </mxCell>
        <mxCell id="3d76a8aef4d5c911-9" value="My Accout" style="html=1;shadow=0;dashed=0;fillColor=none;strokeColor=none;shape=mxgraph.bootstrap.rect;fontColor=#999999;whiteSpace=wrap;" parent="3d76a8aef4d5c911-1" vertex="1">
          <mxGeometry x="970" width="89.38" height="40" as="geometry" />
        </mxCell>
        <mxCell id="3d76a8aef4d5c911-10" value="Log Out" style="html=1;shadow=0;dashed=0;fillColor=none;strokeColor=none;shape=mxgraph.bootstrap.rect;fontColor=#999999;whiteSpace=wrap;" parent="3d76a8aef4d5c911-1" vertex="1">
          <mxGeometry x="1049.375" width="100.625" height="40" as="geometry" />
        </mxCell>
        <mxCell id="UrVs86gc2fkOYc0XdJDe-121" value="Invoices" style="html=1;shadow=0;dashed=0;fillColor=none;strokeColor=none;shape=mxgraph.bootstrap.rect;fontColor=#999999;whiteSpace=wrap;" vertex="1" parent="3d76a8aef4d5c911-1">
          <mxGeometry x="720" width="90" height="40" as="geometry" />
        </mxCell>
        <mxCell id="3d76a8aef4d5c911-11" value="" style="html=1;shadow=0;dashed=0;shape=mxgraph.bootstrap.rrect;rSize=5;strokeColor=#dddddd;rounded=0;fontSize=12;align=center;container=0;" parent="1" vertex="1">
          <mxGeometry x="860" y="150" width="330" height="350" as="geometry" />
        </mxCell>
        <mxCell id="3d76a8aef4d5c911-17" value="Firstname" style="html=1;shadow=0;dashed=0;shape=mxgraph.bootstrap.rect;strokeColor=none;fillColor=none;fontColor=#999999;align=left;spacingLeft=5;whiteSpace=wrap;rounded=0;" parent="1" vertex="1">
          <mxGeometry x="40" y="235" width="160" height="20" as="geometry" />
        </mxCell>
        <mxCell id="3d76a8aef4d5c911-18" value="Sam" style="html=1;shadow=0;dashed=0;shape=mxgraph.bootstrap.rrect;rSize=5;strokeColor=#dddddd;;align=left;spacingLeft=10;fontSize=16;whiteSpace=wrap;rounded=0;" parent="1" vertex="1">
          <mxGeometry x="40" y="255" width="280" height="40" as="geometry" />
        </mxCell>
        <mxCell id="3RXiinGD9AzOw28SL5Pv-1" value="&lt;font color=&quot;#006600&quot; size=&quot;1&quot; face=&quot;Verdana&quot;&gt;&lt;b&gt;&lt;span style=&quot;line-height: 107%; font-size: 36px;&quot; lang=&quot;EN-US&quot;&gt;Hospital&lt;/span&gt;&lt;/b&gt;&lt;/font&gt;&lt;font color=&quot;#ff0000&quot; size=&quot;1&quot; face=&quot;Verdana&quot;&gt;&lt;b&gt;&lt;span style=&quot;line-height: 107%; font-size: 36px;&quot; lang=&quot;EN-US&quot;&gt;+&lt;/span&gt;&lt;/b&gt;&lt;/font&gt;&lt;font style=&quot;font-size: 16px;&quot; color=&quot;#404040&quot; face=&quot;Verdana&quot;&gt;&lt;b&gt;&lt;span style=&quot;line-height: 107%;&quot; lang=&quot;EN-US&quot;&gt; &lt;/span&gt;&lt;/b&gt;&lt;/font&gt;&lt;font color=&quot;#006633&quot; face=&quot;Helvetica&quot; style=&quot;font-size: 16px;&quot;&gt;&lt;b&gt;&lt;span style=&quot;line-height: 107%;&quot; lang=&quot;EN-US&quot;&gt;Internal Use&lt;/span&gt;&lt;/b&gt;&lt;/font&gt;&lt;font color=&quot;#006633&quot; face=&quot;78X5YPvjpM8C-Wn7vtfY&quot; style=&quot;font-size: 16px;&quot;&gt;&lt;b&gt;&lt;span style=&quot;line-height: 107%;&quot; lang=&quot;EN-US&quot;&gt;&lt;br&gt;&lt;/span&gt;&lt;/b&gt;&lt;/font&gt;" style="text;html=1;align=center;verticalAlign=middle;whiteSpace=wrap;rounded=0;fillColor=#f5f5f5;strokeColor=#666666;fontColor=#333333;" parent="1" vertex="1">
          <mxGeometry x="40" y="20" width="1150" height="50" as="geometry" />
        </mxCell>
        <mxCell id="3RXiinGD9AzOw28SL5Pv-2" value="&lt;font style=&quot;font-size: 14px;&quot; face=&quot;Verdana&quot; color=&quot;#006600&quot;&gt;&lt;b&gt;3. Edit basic information&lt;br&gt;&lt;/b&gt;&lt;/font&gt;" style="text;html=1;align=left;verticalAlign=middle;whiteSpace=wrap;rounded=0;" parent="1" vertex="1">
          <mxGeometry x="40" y="195" width="800" height="40" as="geometry" />
        </mxCell>
        <mxCell id="3RXiinGD9AzOw28SL5Pv-57" value="Lastname" style="html=1;shadow=0;dashed=0;shape=mxgraph.bootstrap.rect;strokeColor=none;fillColor=none;fontColor=#999999;align=left;spacingLeft=5;whiteSpace=wrap;rounded=0;" parent="1" vertex="1">
          <mxGeometry x="40" y="385" width="120" height="20" as="geometry" />
        </mxCell>
        <mxCell id="3RXiinGD9AzOw28SL5Pv-58" value="Armstrong" style="html=1;shadow=0;dashed=0;shape=mxgraph.bootstrap.rrect;rSize=5;strokeColor=#dddddd;;align=left;spacingLeft=10;fontSize=16;whiteSpace=wrap;rounded=0;" parent="1" vertex="1">
          <mxGeometry x="40" y="405" width="280" height="40" as="geometry" />
        </mxCell>
        <mxCell id="3RXiinGD9AzOw28SL5Pv-59" value="Middlename" style="html=1;shadow=0;dashed=0;shape=mxgraph.bootstrap.rect;strokeColor=none;fillColor=none;fontColor=#999999;align=left;spacingLeft=5;whiteSpace=wrap;rounded=0;" parent="1" vertex="1">
          <mxGeometry x="40" y="315" width="160" height="20" as="geometry" />
        </mxCell>
        <mxCell id="3RXiinGD9AzOw28SL5Pv-60" value="Q" style="html=1;shadow=0;dashed=0;shape=mxgraph.bootstrap.rrect;rSize=5;strokeColor=#dddddd;;align=left;spacingLeft=10;fontSize=16;whiteSpace=wrap;rounded=0;" parent="1" vertex="1">
          <mxGeometry x="40" y="335" width="280" height="40" as="geometry" />
        </mxCell>
        <mxCell id="3RXiinGD9AzOw28SL5Pv-61" value="Date of birth&lt;font color=&quot;#cc0000&quot;&gt;&lt;br&gt;&lt;/font&gt;" style="html=1;shadow=0;dashed=0;shape=mxgraph.bootstrap.rect;strokeColor=none;fillColor=none;fontColor=#999999;align=left;spacingLeft=5;whiteSpace=wrap;rounded=0;" parent="1" vertex="1">
          <mxGeometry x="560" y="235" width="150" height="20" as="geometry" />
        </mxCell>
        <mxCell id="3RXiinGD9AzOw28SL5Pv-70" value="Sex&lt;font color=&quot;#cc0000&quot;&gt;&lt;br&gt;&lt;/font&gt;" style="html=1;shadow=0;dashed=0;shape=mxgraph.bootstrap.rect;strokeColor=none;fillColor=none;fontColor=#999999;align=left;spacingLeft=5;whiteSpace=wrap;rounded=0;" parent="1" vertex="1">
          <mxGeometry x="360" y="235" width="90" height="20" as="geometry" />
        </mxCell>
        <mxCell id="3RXiinGD9AzOw28SL5Pv-72" value="Male" style="shape=ellipse;fillColor=#eeeeee;strokeColor=#999999;gradientColor=#cccccc;html=1;align=left;spacingLeft=4;fontSize=17;fontColor=#666666;labelPosition=right;shadow=0;" parent="1" vertex="1">
          <mxGeometry x="370" y="267.5" width="15" height="15" as="geometry" />
        </mxCell>
        <mxCell id="3RXiinGD9AzOw28SL5Pv-73" value="Female" style="shape=ellipse;fillColor=#eeeeee;strokeColor=#999999;gradientColor=#cccccc;html=1;align=left;spacingLeft=4;fontSize=17;fontColor=#666666;labelPosition=right;shadow=0;" parent="1" vertex="1">
          <mxGeometry x="440" y="267.5" width="15" height="15" as="geometry" />
        </mxCell>
        <mxCell id="3RXiinGD9AzOw28SL5Pv-99" value="Telephone#" style="html=1;shadow=0;dashed=0;shape=mxgraph.bootstrap.rect;strokeColor=none;fillColor=none;fontColor=#999999;align=left;spacingLeft=5;whiteSpace=wrap;rounded=0;" parent="1" vertex="1">
          <mxGeometry x="360" y="315" width="160" height="20" as="geometry" />
        </mxCell>
        <mxCell id="3RXiinGD9AzOw28SL5Pv-100" value="123-456-7890" style="html=1;shadow=0;dashed=0;shape=mxgraph.bootstrap.rrect;rSize=5;strokeColor=#dddddd;;align=left;spacingLeft=10;fontSize=16;whiteSpace=wrap;rounded=0;" parent="1" vertex="1">
          <mxGeometry x="360" y="335" width="160" height="40" as="geometry" />
        </mxCell>
        <mxCell id="3RXiinGD9AzOw28SL5Pv-105" value="&lt;strong&gt;Facility Maintenance Alert: &lt;/strong&gt;Facilities team will be performing maintenance work on the elevators from 7 PM to 9 PM" style="text;html=1;align=center;verticalAlign=middle;whiteSpace=wrap;rounded=0;fillColor=#FFF2CC;strokeColor=none;fontColor=#333333;" parent="1" vertex="1">
          <mxGeometry x="40" y="110" width="1150" height="20" as="geometry" />
        </mxCell>
        <mxCell id="3RXiinGD9AzOw28SL5Pv-109" value="30 W 3rd St" style="html=1;shadow=0;dashed=0;shape=mxgraph.bootstrap.rrect;rSize=5;strokeColor=#dddddd;;align=left;spacingLeft=10;fontSize=16;whiteSpace=wrap;rounded=0;" parent="1" vertex="1">
          <mxGeometry x="40" y="540" width="280" height="40" as="geometry" />
        </mxCell>
        <mxCell id="3RXiinGD9AzOw28SL5Pv-110" value="Street Name" style="html=1;shadow=0;dashed=0;shape=mxgraph.bootstrap.rect;strokeColor=none;fillColor=none;fontColor=#999999;align=left;spacingLeft=5;whiteSpace=wrap;rounded=0;" parent="1" vertex="1">
          <mxGeometry x="40" y="520" width="280" height="20" as="geometry" />
        </mxCell>
        <mxCell id="3RXiinGD9AzOw28SL5Pv-112" value="City/Town&lt;font color=&quot;#cc0000&quot;&gt;&lt;br&gt;&lt;/font&gt;" style="html=1;shadow=0;dashed=0;shape=mxgraph.bootstrap.rect;strokeColor=none;fillColor=none;fontColor=#999999;align=left;spacingLeft=5;whiteSpace=wrap;rounded=0;" parent="1" vertex="1">
          <mxGeometry x="40" y="600" width="200" height="20" as="geometry" />
        </mxCell>
        <mxCell id="3RXiinGD9AzOw28SL5Pv-113" value="Hamilton" style="html=1;shadow=0;dashed=0;shape=mxgraph.bootstrap.rrect;rSize=5;strokeColor=#505050;strokeWidth=1;fillColor=#ffffff;fontColor=#777777;whiteSpace=wrap;align=left;verticalAlign=middle;fontStyle=0;fontSize=14;spacingRight=0;spacing=17;" parent="1" vertex="1">
          <mxGeometry x="40" y="620" width="280" height="40" as="geometry" />
        </mxCell>
        <mxCell id="3RXiinGD9AzOw28SL5Pv-114" value="" style="shape=triangle;direction=south;fillColor=#495057;strokeColor=none;perimeter=none;" parent="3RXiinGD9AzOw28SL5Pv-113" vertex="1">
          <mxGeometry x="1" y="0.5" width="10" height="5" relative="1" as="geometry">
            <mxPoint x="-17" y="-2.5" as="offset" />
          </mxGeometry>
        </mxCell>
        <mxCell id="3RXiinGD9AzOw28SL5Pv-115" value=" L9C 3J7" style="html=1;shadow=0;dashed=0;shape=mxgraph.bootstrap.rrect;rSize=5;strokeColor=#dddddd;;align=left;spacingLeft=10;fontSize=16;whiteSpace=wrap;rounded=0;" parent="1" vertex="1">
          <mxGeometry x="360" y="540" width="160" height="40" as="geometry" />
        </mxCell>
        <mxCell id="3RXiinGD9AzOw28SL5Pv-116" value="Postal Code&lt;font color=&quot;#cc0000&quot;&gt;&lt;br&gt;&lt;/font&gt;" style="html=1;shadow=0;dashed=0;shape=mxgraph.bootstrap.rect;strokeColor=none;fillColor=none;fontColor=#999999;align=left;spacingLeft=5;whiteSpace=wrap;rounded=0;" parent="1" vertex="1">
          <mxGeometry x="360" y="520" width="160" height="20" as="geometry" />
        </mxCell>
        <mxCell id="UrVs86gc2fkOYc0XdJDe-6" value="Sumbit" style="html=1;shadow=0;dashed=0;shape=mxgraph.bootstrap.rrect;align=center;rSize=5;strokeColor=none;fillColor=#3D8BCD;fontColor=#ffffff;fontSize=16;whiteSpace=wrap;rounded=0;" vertex="1" parent="1">
          <mxGeometry x="38.36" y="1500" width="150" height="40" as="geometry" />
        </mxCell>
        <mxCell id="UrVs86gc2fkOYc0XdJDe-7" value="Cancel" style="html=1;shadow=0;dashed=0;shape=mxgraph.bootstrap.rrect;align=center;rSize=5;strokeColor=#dddddd;fontSize=16;whiteSpace=wrap;rounded=0;" vertex="1" parent="1">
          <mxGeometry x="208.36" y="1500" width="131.64" height="40" as="geometry" />
        </mxCell>
        <mxCell id="UrVs86gc2fkOYc0XdJDe-44" value="" style="html=1;shadow=0;dashed=0;shape=mxgraph.bootstrap.rrect;rSize=5;strokeColor=#dddddd;rounded=0;fontSize=12;align=center;container=0;" vertex="1" parent="1">
          <mxGeometry x="860" y="520" width="330" height="400" as="geometry" />
        </mxCell>
        <mxCell id="UrVs86gc2fkOYc0XdJDe-64" value="Province" style="html=1;shadow=0;dashed=0;shape=mxgraph.bootstrap.rect;strokeColor=none;fillColor=none;fontColor=#999999;align=left;spacingLeft=5;whiteSpace=wrap;rounded=0;" vertex="1" parent="1">
          <mxGeometry x="360" y="600" width="160" height="20" as="geometry" />
        </mxCell>
        <mxCell id="UrVs86gc2fkOYc0XdJDe-65" value="Ontario" style="html=1;shadow=0;dashed=0;shape=mxgraph.bootstrap.rrect;rSize=5;strokeColor=#505050;strokeWidth=1;fillColor=#ffffff;fontColor=#777777;whiteSpace=wrap;align=left;verticalAlign=middle;fontStyle=0;fontSize=14;spacingRight=0;spacing=17;" vertex="1" parent="1">
          <mxGeometry x="360" y="620" width="160" height="40" as="geometry" />
        </mxCell>
        <mxCell id="UrVs86gc2fkOYc0XdJDe-66" value="" style="shape=triangle;direction=south;fillColor=#495057;strokeColor=none;perimeter=none;" vertex="1" parent="UrVs86gc2fkOYc0XdJDe-65">
          <mxGeometry x="1" y="0.5" width="10" height="5" relative="1" as="geometry">
            <mxPoint x="-17" y="-2.5" as="offset" />
          </mxGeometry>
        </mxCell>
        <mxCell id="UrVs86gc2fkOYc0XdJDe-120" value="ID of first visit (Edit Locked)" style="html=1;shadow=0;dashed=0;shape=mxgraph.bootstrap.rect;strokeColor=none;fillColor=none;fontColor=#999999;align=left;spacingLeft=5;whiteSpace=wrap;rounded=0;" vertex="1" parent="1">
          <mxGeometry x="560" y="520" width="170" height="20" as="geometry" />
        </mxCell>
        <mxCell id="UrVs86gc2fkOYc0XdJDe-122" value="&lt;font style=&quot;font-size: 14px;&quot; face=&quot;Verdana&quot; color=&quot;#006600&quot;&gt;&lt;b&gt;3. Edit Address, Insurance, Date of visits and household&lt;br&gt;&lt;/b&gt;&lt;/font&gt;" style="text;html=1;align=left;verticalAlign=middle;whiteSpace=wrap;rounded=0;" vertex="1" parent="1">
          <mxGeometry x="40" y="470" width="800" height="40" as="geometry" />
        </mxCell>
        <mxCell id="3d76a8aef4d5c911-12" value="" style="shape=rect;fontSize=24;fillColor=#f0f0f0;strokeColor=none;fontColor=#999999;whiteSpace=wrap;" parent="1" vertex="1">
          <mxGeometry x="865" y="155" width="320" height="200" as="geometry" />
        </mxCell>
        <mxCell id="3d76a8aef4d5c911-13" value="Searching Patient Record" style="html=1;shadow=0;dashed=0;shape=mxgraph.bootstrap.anchor;fontSize=26;align=left;whiteSpace=wrap;" parent="1" vertex="1">
          <mxGeometry x="875" y="370" width="300" height="40" as="geometry" />
        </mxCell>
        <mxCell id="3d76a8aef4d5c911-14" value="&lt;div&gt;1. Type in patient&#39;s first name&lt;/div&gt;&lt;div&gt;2. Type in any other supporting details&lt;/div&gt;&lt;div&gt;3. Click Submit&lt;br&gt;&lt;/div&gt;" style="html=1;shadow=0;dashed=0;shape=mxgraph.bootstrap.anchor;strokeColor=#dddddd;whiteSpace=wrap;align=left;verticalAlign=top;fontSize=14;whiteSpace=wrap;" parent="1" vertex="1">
          <mxGeometry x="875" y="410" width="300" height="80" as="geometry" />
        </mxCell>
        <mxCell id="UrVs86gc2fkOYc0XdJDe-129" value="" style="image;sketch=0;aspect=fixed;html=1;points=[];align=center;fontSize=12;image=img/lib/mscae/Search.svg;" vertex="1" parent="1">
          <mxGeometry x="950" y="180" width="150" height="150" as="geometry" />
        </mxCell>
        <mxCell id="UrVs86gc2fkOYc0XdJDe-45" value="" style="shape=rect;fontSize=24;fillColor=#f0f0f0;strokeColor=none;fontColor=#999999;whiteSpace=wrap;" vertex="1" parent="1">
          <mxGeometry x="865" y="525" width="320" height="200" as="geometry" />
        </mxCell>
        <mxCell id="UrVs86gc2fkOYc0XdJDe-46" value="Managing Patient Record" style="html=1;shadow=0;dashed=0;shape=mxgraph.bootstrap.anchor;fontSize=26;align=left;whiteSpace=wrap;" vertex="1" parent="1">
          <mxGeometry x="875" y="740" width="300" height="40" as="geometry" />
        </mxCell>
        <mxCell id="UrVs86gc2fkOYc0XdJDe-47" value="&lt;div&gt;1. Find corresponding patient record&lt;/div&gt;&lt;div&gt;2. Edit patient information&lt;/div&gt;&lt;div&gt;3. Create &quot;Reason of change&quot; note&lt;/div&gt;&lt;div&gt;4. Submit change request&lt;/div&gt;&lt;div&gt;5. You will receive &quot;Accepted&quot; or &quot;Denied&quot; response from management&lt;br&gt;&lt;/div&gt;" style="html=1;shadow=0;dashed=0;shape=mxgraph.bootstrap.anchor;strokeColor=#dddddd;whiteSpace=wrap;align=left;verticalAlign=top;fontSize=14;whiteSpace=wrap;" vertex="1" parent="1">
          <mxGeometry x="875" y="780" width="300" height="110" as="geometry" />
        </mxCell>
        <mxCell id="UrVs86gc2fkOYc0XdJDe-130" value="" style="sketch=0;outlineConnect=0;fontColor=#232F3E;gradientColor=none;fillColor=#8C4FFF;strokeColor=none;dashed=0;verticalLabelPosition=bottom;verticalAlign=top;align=center;html=1;fontSize=12;fontStyle=0;aspect=fixed;pointerEvents=1;shape=mxgraph.aws4.search_documents;" vertex="1" parent="1">
          <mxGeometry x="959.62" y="550" width="130.77" height="150" as="geometry" />
        </mxCell>
        <mxCell id="UrVs86gc2fkOYc0XdJDe-131" value="&lt;font style=&quot;font-size: 18px;&quot; color=&quot;#006600&quot; face=&quot;Verdana&quot;&gt;&lt;b&gt;Patient Record Management&lt;br&gt;&lt;/b&gt;&lt;/font&gt;" style="text;html=1;align=center;verticalAlign=middle;whiteSpace=wrap;rounded=0;fillColor=#f5f5f5;strokeColor=#666666;fontColor=#333333;" vertex="1" parent="1">
          <mxGeometry x="40" y="155" width="810" height="40" as="geometry" />
        </mxCell>
        <mxCell id="UrVs86gc2fkOYc0XdJDe-132" value="" style="ellipse;whiteSpace=wrap;html=1;aspect=fixed;strokeColor=none;fillColor=#7A7A7A;" vertex="1" parent="1">
          <mxGeometry x="372.5" y="270" width="10" height="10" as="geometry" />
        </mxCell>
        <mxCell id="UrVs86gc2fkOYc0XdJDe-134" value="" style="strokeWidth=1;shadow=0;dashed=0;align=center;html=1;shape=mxgraph.mockup.forms.rrect;rSize=5;strokeColor=#999999;fillColor=#ffffff;" vertex="1" parent="1">
          <mxGeometry x="560" y="255" width="280" height="195" as="geometry" />
        </mxCell>
        <mxCell id="UrVs86gc2fkOYc0XdJDe-135" value="November 1988" style="strokeWidth=1;shadow=0;dashed=0;align=center;html=1;shape=mxgraph.mockup.forms.anchor;fontColor=#999999;" vertex="1" parent="UrVs86gc2fkOYc0XdJDe-134">
          <mxGeometry x="52.5" y="8.914285714285715" width="175" height="22.28571428571429" as="geometry" />
        </mxCell>
        <mxCell id="UrVs86gc2fkOYc0XdJDe-136" value="&lt;" style="strokeWidth=1;shadow=0;dashed=0;align=center;html=1;shape=mxgraph.mockup.forms.rrect;rSize=4;strokeColor=#999999;fontColor=#008cff;fontSize=19;fontStyle=1;" vertex="1" parent="UrVs86gc2fkOYc0XdJDe-134">
          <mxGeometry x="14" y="8.914285714285715" width="43.75" height="22.28571428571429" as="geometry" />
        </mxCell>
        <mxCell id="UrVs86gc2fkOYc0XdJDe-137" value="&gt;" style="strokeWidth=1;shadow=0;dashed=0;align=center;html=1;shape=mxgraph.mockup.forms.rrect;rSize=4;strokeColor=#999999;fontColor=#008cff;fontSize=19;fontStyle=1;" vertex="1" parent="UrVs86gc2fkOYc0XdJDe-134">
          <mxGeometry x="222.25" y="8.914285714285715" width="43.75" height="22.28571428571429" as="geometry" />
        </mxCell>
        <mxCell id="UrVs86gc2fkOYc0XdJDe-138" value="Mo" style="strokeWidth=1;shadow=0;dashed=0;align=center;html=1;shape=mxgraph.mockup.forms.anchor;fontColor=#999999;" vertex="1" parent="UrVs86gc2fkOYc0XdJDe-134">
          <mxGeometry x="17.5" y="31.200000000000003" width="35" height="22.28571428571429" as="geometry" />
        </mxCell>
        <mxCell id="UrVs86gc2fkOYc0XdJDe-139" value="Tu" style="strokeWidth=1;shadow=0;dashed=0;align=center;html=1;shape=mxgraph.mockup.forms.anchor;fontColor=#999999;" vertex="1" parent="UrVs86gc2fkOYc0XdJDe-134">
          <mxGeometry x="52.5" y="31.200000000000003" width="35" height="22.28571428571429" as="geometry" />
        </mxCell>
        <mxCell id="UrVs86gc2fkOYc0XdJDe-140" value="We" style="strokeWidth=1;shadow=0;dashed=0;align=center;html=1;shape=mxgraph.mockup.forms.anchor;fontColor=#999999;" vertex="1" parent="UrVs86gc2fkOYc0XdJDe-134">
          <mxGeometry x="87.5" y="31.200000000000003" width="35" height="22.28571428571429" as="geometry" />
        </mxCell>
        <mxCell id="UrVs86gc2fkOYc0XdJDe-141" value="Th" style="strokeWidth=1;shadow=0;dashed=0;align=center;html=1;shape=mxgraph.mockup.forms.anchor;fontColor=#999999;" vertex="1" parent="UrVs86gc2fkOYc0XdJDe-134">
          <mxGeometry x="122.5" y="31.200000000000003" width="35" height="22.28571428571429" as="geometry" />
        </mxCell>
        <mxCell id="UrVs86gc2fkOYc0XdJDe-142" value="Fr" style="strokeWidth=1;shadow=0;dashed=0;align=center;html=1;shape=mxgraph.mockup.forms.anchor;fontColor=#999999;" vertex="1" parent="UrVs86gc2fkOYc0XdJDe-134">
          <mxGeometry x="157.5" y="31.200000000000003" width="35" height="22.28571428571429" as="geometry" />
        </mxCell>
        <mxCell id="UrVs86gc2fkOYc0XdJDe-143" value="Sa" style="strokeWidth=1;shadow=0;dashed=0;align=center;html=1;shape=mxgraph.mockup.forms.anchor;fontColor=#999999;" vertex="1" parent="UrVs86gc2fkOYc0XdJDe-134">
          <mxGeometry x="192.5" y="31.200000000000003" width="35" height="22.28571428571429" as="geometry" />
        </mxCell>
        <mxCell id="UrVs86gc2fkOYc0XdJDe-144" value="Su" style="strokeWidth=1;shadow=0;dashed=0;align=center;html=1;shape=mxgraph.mockup.forms.anchor;fontColor=#999999;" vertex="1" parent="UrVs86gc2fkOYc0XdJDe-134">
          <mxGeometry x="227.5" y="31.200000000000003" width="35" height="22.28571428571429" as="geometry" />
        </mxCell>
        <mxCell id="UrVs86gc2fkOYc0XdJDe-145" value="1" style="strokeWidth=1;shadow=0;dashed=0;align=center;html=1;shape=mxgraph.mockup.forms.rrect;rSize=0;strokeColor=#999999;fontColor=#999999;" vertex="1" parent="UrVs86gc2fkOYc0XdJDe-134">
          <mxGeometry x="17.5" y="53.485714285714295" width="35" height="22.28571428571429" as="geometry" />
        </mxCell>
        <mxCell id="UrVs86gc2fkOYc0XdJDe-146" value="2" style="strokeWidth=1;shadow=0;dashed=0;align=center;html=1;shape=mxgraph.mockup.forms.rrect;rSize=0;strokeColor=#999999;fontColor=#999999;" vertex="1" parent="UrVs86gc2fkOYc0XdJDe-134">
          <mxGeometry x="52.5" y="53.485714285714295" width="35" height="22.28571428571429" as="geometry" />
        </mxCell>
        <mxCell id="UrVs86gc2fkOYc0XdJDe-147" value="3" style="strokeWidth=1;shadow=0;dashed=0;align=center;html=1;shape=mxgraph.mockup.forms.rrect;rSize=0;strokeColor=#999999;fontColor=#999999;" vertex="1" parent="UrVs86gc2fkOYc0XdJDe-134">
          <mxGeometry x="87.5" y="53.485714285714295" width="35" height="22.28571428571429" as="geometry" />
        </mxCell>
        <mxCell id="UrVs86gc2fkOYc0XdJDe-148" value="4" style="strokeWidth=1;shadow=0;dashed=0;align=center;html=1;shape=mxgraph.mockup.forms.rrect;rSize=0;strokeColor=#999999;fontColor=#999999;" vertex="1" parent="UrVs86gc2fkOYc0XdJDe-134">
          <mxGeometry x="122.5" y="53.485714285714295" width="35" height="22.28571428571429" as="geometry" />
        </mxCell>
        <mxCell id="UrVs86gc2fkOYc0XdJDe-149" value="5" style="strokeWidth=1;shadow=0;dashed=0;align=center;html=1;shape=mxgraph.mockup.forms.rrect;rSize=0;strokeColor=#999999;fontColor=#999999;" vertex="1" parent="UrVs86gc2fkOYc0XdJDe-134">
          <mxGeometry x="157.5" y="53.485714285714295" width="35" height="22.28571428571429" as="geometry" />
        </mxCell>
        <mxCell id="UrVs86gc2fkOYc0XdJDe-150" value="6" style="strokeWidth=1;shadow=0;dashed=0;align=center;html=1;shape=mxgraph.mockup.forms.rrect;rSize=0;strokeColor=#999999;fontColor=#999999;" vertex="1" parent="UrVs86gc2fkOYc0XdJDe-134">
          <mxGeometry x="192.5" y="53.485714285714295" width="35" height="22.28571428571429" as="geometry" />
        </mxCell>
        <mxCell id="UrVs86gc2fkOYc0XdJDe-151" value="7" style="strokeWidth=1;shadow=0;dashed=0;align=center;html=1;shape=mxgraph.mockup.forms.rrect;rSize=0;strokeColor=#999999;fontColor=#999999;" vertex="1" parent="UrVs86gc2fkOYc0XdJDe-134">
          <mxGeometry x="227.5" y="53.485714285714295" width="35" height="22.28571428571429" as="geometry" />
        </mxCell>
        <mxCell id="UrVs86gc2fkOYc0XdJDe-152" value="8" style="strokeWidth=1;shadow=0;dashed=0;align=center;html=1;shape=mxgraph.mockup.forms.rrect;rSize=0;strokeColor=#999999;fontColor=#999999;" vertex="1" parent="UrVs86gc2fkOYc0XdJDe-134">
          <mxGeometry x="17.5" y="75.77142857142859" width="35" height="22.28571428571429" as="geometry" />
        </mxCell>
        <mxCell id="UrVs86gc2fkOYc0XdJDe-153" value="9" style="strokeWidth=1;shadow=0;dashed=0;align=center;html=1;shape=mxgraph.mockup.forms.rrect;rSize=0;strokeColor=#999999;fontColor=#999999;" vertex="1" parent="UrVs86gc2fkOYc0XdJDe-134">
          <mxGeometry x="52.5" y="75.77142857142859" width="35" height="22.28571428571429" as="geometry" />
        </mxCell>
        <mxCell id="UrVs86gc2fkOYc0XdJDe-154" value="10" style="strokeWidth=1;shadow=0;dashed=0;align=center;html=1;shape=mxgraph.mockup.forms.rrect;rSize=0;strokeColor=#999999;fontColor=#999999;" vertex="1" parent="UrVs86gc2fkOYc0XdJDe-134">
          <mxGeometry x="87.5" y="75.77142857142859" width="35" height="22.28571428571429" as="geometry" />
        </mxCell>
        <mxCell id="UrVs86gc2fkOYc0XdJDe-155" value="11" style="strokeWidth=1;shadow=0;dashed=0;align=center;html=1;shape=mxgraph.mockup.forms.rrect;rSize=0;strokeColor=#999999;fontColor=#999999;" vertex="1" parent="UrVs86gc2fkOYc0XdJDe-134">
          <mxGeometry x="122.5" y="75.77142857142859" width="35" height="22.28571428571429" as="geometry" />
        </mxCell>
        <mxCell id="UrVs86gc2fkOYc0XdJDe-156" value="12" style="strokeWidth=1;shadow=0;dashed=0;align=center;html=1;shape=mxgraph.mockup.forms.rrect;rSize=0;strokeColor=#999999;fontColor=#999999;" vertex="1" parent="UrVs86gc2fkOYc0XdJDe-134">
          <mxGeometry x="157.5" y="75.77142857142859" width="35" height="22.28571428571429" as="geometry" />
        </mxCell>
        <mxCell id="UrVs86gc2fkOYc0XdJDe-157" value="13" style="strokeWidth=1;shadow=0;dashed=0;align=center;html=1;shape=mxgraph.mockup.forms.rrect;rSize=0;strokeColor=#999999;fontColor=#999999;" vertex="1" parent="UrVs86gc2fkOYc0XdJDe-134">
          <mxGeometry x="192.5" y="75.77142857142859" width="35" height="22.28571428571429" as="geometry" />
        </mxCell>
        <mxCell id="UrVs86gc2fkOYc0XdJDe-158" value="14" style="strokeWidth=1;shadow=0;dashed=0;align=center;html=1;shape=mxgraph.mockup.forms.rrect;rSize=0;strokeColor=#999999;fontColor=#999999;" vertex="1" parent="UrVs86gc2fkOYc0XdJDe-134">
          <mxGeometry x="227.5" y="75.77142857142859" width="35" height="22.28571428571429" as="geometry" />
        </mxCell>
        <mxCell id="UrVs86gc2fkOYc0XdJDe-159" value="15" style="strokeWidth=1;shadow=0;dashed=0;align=center;html=1;shape=mxgraph.mockup.forms.rrect;rSize=0;strokeColor=#999999;fontColor=#999999;" vertex="1" parent="UrVs86gc2fkOYc0XdJDe-134">
          <mxGeometry x="17.5" y="98.05714285714286" width="35" height="22.28571428571429" as="geometry" />
        </mxCell>
        <mxCell id="UrVs86gc2fkOYc0XdJDe-160" value="16" style="strokeWidth=1;shadow=0;dashed=0;align=center;html=1;shape=mxgraph.mockup.forms.rrect;rSize=0;strokeColor=#999999;fontColor=#999999;" vertex="1" parent="UrVs86gc2fkOYc0XdJDe-134">
          <mxGeometry x="52.5" y="98.05714285714286" width="35" height="22.28571428571429" as="geometry" />
        </mxCell>
        <mxCell id="UrVs86gc2fkOYc0XdJDe-161" value="17" style="strokeWidth=1;shadow=0;dashed=0;align=center;html=1;shape=mxgraph.mockup.forms.rrect;rSize=0;strokeColor=#999999;fontColor=#999999;" vertex="1" parent="UrVs86gc2fkOYc0XdJDe-134">
          <mxGeometry x="87.5" y="98.05714285714286" width="35" height="22.28571428571429" as="geometry" />
        </mxCell>
        <mxCell id="UrVs86gc2fkOYc0XdJDe-162" value="18" style="strokeWidth=1;shadow=0;dashed=0;align=center;html=1;shape=mxgraph.mockup.forms.rrect;rSize=0;strokeColor=#999999;fontColor=#999999;" vertex="1" parent="UrVs86gc2fkOYc0XdJDe-134">
          <mxGeometry x="122.5" y="98.05714285714286" width="35" height="22.28571428571429" as="geometry" />
        </mxCell>
        <mxCell id="UrVs86gc2fkOYc0XdJDe-163" value="19" style="strokeWidth=1;shadow=0;dashed=0;align=center;html=1;shape=mxgraph.mockup.forms.rrect;rSize=0;strokeColor=#999999;fontColor=#999999;" vertex="1" parent="UrVs86gc2fkOYc0XdJDe-134">
          <mxGeometry x="157.5" y="98.05714285714286" width="35" height="22.28571428571429" as="geometry" />
        </mxCell>
        <mxCell id="UrVs86gc2fkOYc0XdJDe-164" value="20" style="strokeWidth=1;shadow=0;dashed=0;align=center;html=1;shape=mxgraph.mockup.forms.rrect;rSize=0;strokeColor=#999999;fontColor=#999999;" vertex="1" parent="UrVs86gc2fkOYc0XdJDe-134">
          <mxGeometry x="192.5" y="98.05714285714286" width="35" height="22.28571428571429" as="geometry" />
        </mxCell>
        <mxCell id="UrVs86gc2fkOYc0XdJDe-165" value="21" style="strokeWidth=1;shadow=0;dashed=0;align=center;html=1;shape=mxgraph.mockup.forms.rrect;rSize=0;strokeColor=#999999;fontColor=#999999;" vertex="1" parent="UrVs86gc2fkOYc0XdJDe-134">
          <mxGeometry x="227.5" y="98.05714285714286" width="35" height="22.28571428571429" as="geometry" />
        </mxCell>
        <mxCell id="UrVs86gc2fkOYc0XdJDe-166" value="22" style="strokeWidth=1;shadow=0;dashed=0;align=center;html=1;shape=mxgraph.mockup.forms.rrect;rSize=0;strokeColor=#999999;fontColor=#999999;" vertex="1" parent="UrVs86gc2fkOYc0XdJDe-134">
          <mxGeometry x="17.5" y="120.34285714285716" width="35" height="22.28571428571429" as="geometry" />
        </mxCell>
        <mxCell id="UrVs86gc2fkOYc0XdJDe-167" value="23" style="strokeWidth=1;shadow=0;dashed=0;align=center;html=1;shape=mxgraph.mockup.forms.rrect;rSize=0;strokeColor=#999999;fontColor=#999999;" vertex="1" parent="UrVs86gc2fkOYc0XdJDe-134">
          <mxGeometry x="52.5" y="120.34285714285716" width="35" height="22.28571428571429" as="geometry" />
        </mxCell>
        <mxCell id="UrVs86gc2fkOYc0XdJDe-168" value="25" style="strokeWidth=1;shadow=0;dashed=0;align=center;html=1;shape=mxgraph.mockup.forms.rrect;rSize=0;strokeColor=#999999;fontColor=#999999;" vertex="1" parent="UrVs86gc2fkOYc0XdJDe-134">
          <mxGeometry x="122.5" y="120.34285714285716" width="35" height="22.28571428571429" as="geometry" />
        </mxCell>
        <mxCell id="UrVs86gc2fkOYc0XdJDe-169" value="26" style="strokeWidth=1;shadow=0;dashed=0;align=center;html=1;shape=mxgraph.mockup.forms.rrect;rSize=0;strokeColor=#999999;fontColor=#999999;" vertex="1" parent="UrVs86gc2fkOYc0XdJDe-134">
          <mxGeometry x="157.5" y="120.34285714285716" width="35" height="22.28571428571429" as="geometry" />
        </mxCell>
        <mxCell id="UrVs86gc2fkOYc0XdJDe-170" value="27" style="strokeWidth=1;shadow=0;dashed=0;align=center;html=1;shape=mxgraph.mockup.forms.rrect;rSize=0;strokeColor=#999999;fontColor=#999999;" vertex="1" parent="UrVs86gc2fkOYc0XdJDe-134">
          <mxGeometry x="192.5" y="120.34285714285716" width="35" height="22.28571428571429" as="geometry" />
        </mxCell>
        <mxCell id="UrVs86gc2fkOYc0XdJDe-171" value="28" style="strokeWidth=1;shadow=0;dashed=0;align=center;html=1;shape=mxgraph.mockup.forms.rrect;rSize=0;strokeColor=#999999;fontColor=#999999;" vertex="1" parent="UrVs86gc2fkOYc0XdJDe-134">
          <mxGeometry x="227.5" y="120.34285714285716" width="35" height="22.28571428571429" as="geometry" />
        </mxCell>
        <mxCell id="UrVs86gc2fkOYc0XdJDe-172" value="29" style="strokeWidth=1;shadow=0;dashed=0;align=center;html=1;shape=mxgraph.mockup.forms.rrect;rSize=0;strokeColor=#999999;fontColor=#999999;" vertex="1" parent="UrVs86gc2fkOYc0XdJDe-134">
          <mxGeometry x="17.5" y="142.62857142857143" width="35" height="22.28571428571429" as="geometry" />
        </mxCell>
        <mxCell id="UrVs86gc2fkOYc0XdJDe-173" value="30" style="strokeWidth=1;shadow=0;dashed=0;align=center;html=1;shape=mxgraph.mockup.forms.rrect;rSize=0;strokeColor=#999999;fontColor=#999999;" vertex="1" parent="UrVs86gc2fkOYc0XdJDe-134">
          <mxGeometry x="52.5" y="142.62857142857143" width="35" height="22.28571428571429" as="geometry" />
        </mxCell>
        <mxCell id="UrVs86gc2fkOYc0XdJDe-174" value="31" style="strokeWidth=1;shadow=0;dashed=0;align=center;html=1;shape=mxgraph.mockup.forms.rrect;rSize=0;strokeColor=#999999;fontColor=#999999;" vertex="1" parent="UrVs86gc2fkOYc0XdJDe-134">
          <mxGeometry x="87.5" y="142.62857142857143" width="35" height="22.28571428571429" as="geometry" />
        </mxCell>
        <mxCell id="UrVs86gc2fkOYc0XdJDe-175" value="1" style="strokeWidth=1;shadow=0;dashed=0;align=center;html=1;shape=mxgraph.mockup.forms.rrect;rSize=0;strokeColor=#999999;fontColor=#999999;fillColor=#ddeeff;" vertex="1" parent="UrVs86gc2fkOYc0XdJDe-134">
          <mxGeometry x="122.5" y="142.62857142857143" width="35" height="22.28571428571429" as="geometry" />
        </mxCell>
        <mxCell id="UrVs86gc2fkOYc0XdJDe-176" value="2" style="strokeWidth=1;shadow=0;dashed=0;align=center;html=1;shape=mxgraph.mockup.forms.rrect;rSize=0;strokeColor=#999999;fontColor=#999999;fillColor=#ddeeff;" vertex="1" parent="UrVs86gc2fkOYc0XdJDe-134">
          <mxGeometry x="157.5" y="142.62857142857143" width="35" height="22.28571428571429" as="geometry" />
        </mxCell>
        <mxCell id="UrVs86gc2fkOYc0XdJDe-177" value="3" style="strokeWidth=1;shadow=0;dashed=0;align=center;html=1;shape=mxgraph.mockup.forms.rrect;rSize=0;strokeColor=#999999;fontColor=#999999;fillColor=#ddeeff;" vertex="1" parent="UrVs86gc2fkOYc0XdJDe-134">
          <mxGeometry x="192.5" y="142.62857142857143" width="35" height="22.28571428571429" as="geometry" />
        </mxCell>
        <mxCell id="UrVs86gc2fkOYc0XdJDe-178" value="4" style="strokeWidth=1;shadow=0;dashed=0;align=center;html=1;shape=mxgraph.mockup.forms.rrect;rSize=0;strokeColor=#999999;fontColor=#999999;fillColor=#ddeeff;" vertex="1" parent="UrVs86gc2fkOYc0XdJDe-134">
          <mxGeometry x="227.5" y="142.62857142857143" width="35" height="22.28571428571429" as="geometry" />
        </mxCell>
        <mxCell id="UrVs86gc2fkOYc0XdJDe-179" value="5" style="strokeWidth=1;shadow=0;dashed=0;align=center;html=1;shape=mxgraph.mockup.forms.rrect;rSize=0;strokeColor=#999999;fontColor=#999999;fillColor=#ddeeff;" vertex="1" parent="UrVs86gc2fkOYc0XdJDe-134">
          <mxGeometry x="17.5" y="164.91428571428574" width="35" height="22.28571428571429" as="geometry" />
        </mxCell>
        <mxCell id="UrVs86gc2fkOYc0XdJDe-180" value="6" style="strokeWidth=1;shadow=0;dashed=0;align=center;html=1;shape=mxgraph.mockup.forms.rrect;rSize=0;strokeColor=#999999;fontColor=#999999;fillColor=#ddeeff;" vertex="1" parent="UrVs86gc2fkOYc0XdJDe-134">
          <mxGeometry x="52.5" y="164.91428571428574" width="35" height="22.28571428571429" as="geometry" />
        </mxCell>
        <mxCell id="UrVs86gc2fkOYc0XdJDe-181" value="7" style="strokeWidth=1;shadow=0;dashed=0;align=center;html=1;shape=mxgraph.mockup.forms.rrect;rSize=0;strokeColor=#999999;fontColor=#999999;fillColor=#ddeeff;" vertex="1" parent="UrVs86gc2fkOYc0XdJDe-134">
          <mxGeometry x="87.5" y="164.91428571428574" width="35" height="22.28571428571429" as="geometry" />
        </mxCell>
        <mxCell id="UrVs86gc2fkOYc0XdJDe-182" value="8" style="strokeWidth=1;shadow=0;dashed=0;align=center;html=1;shape=mxgraph.mockup.forms.rrect;rSize=0;strokeColor=#999999;fontColor=#999999;fillColor=#ddeeff;" vertex="1" parent="UrVs86gc2fkOYc0XdJDe-134">
          <mxGeometry x="122.5" y="164.91428571428574" width="35" height="22.28571428571429" as="geometry" />
        </mxCell>
        <mxCell id="UrVs86gc2fkOYc0XdJDe-183" value="9" style="strokeWidth=1;shadow=0;dashed=0;align=center;html=1;shape=mxgraph.mockup.forms.rrect;rSize=0;strokeColor=#999999;fontColor=#999999;fillColor=#ddeeff;" vertex="1" parent="UrVs86gc2fkOYc0XdJDe-134">
          <mxGeometry x="157.5" y="164.91428571428574" width="35" height="22.28571428571429" as="geometry" />
        </mxCell>
        <mxCell id="UrVs86gc2fkOYc0XdJDe-184" value="10" style="strokeWidth=1;shadow=0;dashed=0;align=center;html=1;shape=mxgraph.mockup.forms.rrect;rSize=0;strokeColor=#999999;fontColor=#999999;fillColor=#ddeeff;" vertex="1" parent="UrVs86gc2fkOYc0XdJDe-134">
          <mxGeometry x="192.5" y="164.91428571428574" width="35" height="22.28571428571429" as="geometry" />
        </mxCell>
        <mxCell id="UrVs86gc2fkOYc0XdJDe-185" value="11" style="strokeWidth=1;shadow=0;dashed=0;align=center;html=1;shape=mxgraph.mockup.forms.rrect;rSize=0;strokeColor=#999999;fontColor=#999999;fillColor=#ddeeff;" vertex="1" parent="UrVs86gc2fkOYc0XdJDe-134">
          <mxGeometry x="227.5" y="164.91428571428574" width="35" height="22.28571428571429" as="geometry" />
        </mxCell>
        <mxCell id="UrVs86gc2fkOYc0XdJDe-187" value="20" style="strokeWidth=1;shadow=0;dashed=0;align=center;html=1;shape=mxgraph.mockup.forms.rrect;rSize=0;strokeColor=#ff0000;fontColor=#ffffff;strokeWidth=2;fillColor=#008cff;" vertex="1" parent="UrVs86gc2fkOYc0XdJDe-134">
          <mxGeometry x="192.5" y="98.05285714285714" width="35" height="22.28571428571429" as="geometry" />
        </mxCell>
        <mxCell id="UrVs86gc2fkOYc0XdJDe-188" value="24" style="strokeWidth=1;shadow=0;dashed=0;align=center;html=1;shape=mxgraph.mockup.forms.rrect;rSize=0;strokeColor=#999999;fontColor=#999999;" vertex="1" parent="UrVs86gc2fkOYc0XdJDe-134">
          <mxGeometry x="87.5" y="120.34285714285716" width="35" height="22.28571428571429" as="geometry" />
        </mxCell>
        <mxCell id="UrVs86gc2fkOYc0XdJDe-267" value="Insurance Company Name" style="html=1;shadow=0;dashed=0;shape=mxgraph.bootstrap.rect;strokeColor=none;fillColor=none;fontColor=#999999;align=left;spacingLeft=5;whiteSpace=wrap;rounded=0;" vertex="1" parent="1">
          <mxGeometry x="40" y="680" width="200" height="20" as="geometry" />
        </mxCell>
        <mxCell id="UrVs86gc2fkOYc0XdJDe-268" value="Häagen-Dazs" style="html=1;shadow=0;dashed=0;shape=mxgraph.bootstrap.rrect;rSize=5;strokeColor=#dddddd;;align=left;spacingLeft=10;fontSize=16;whiteSpace=wrap;rounded=0;" vertex="1" parent="1">
          <mxGeometry x="40" y="700" width="280" height="40" as="geometry" />
        </mxCell>
        <mxCell id="UrVs86gc2fkOYc0XdJDe-269" value="Insurance#" style="html=1;shadow=0;dashed=0;shape=mxgraph.bootstrap.rect;strokeColor=none;fillColor=none;fontColor=#999999;align=left;spacingLeft=5;whiteSpace=wrap;rounded=0;" vertex="1" parent="1">
          <mxGeometry x="360" y="680" width="160" height="20" as="geometry" />
        </mxCell>
        <mxCell id="UrVs86gc2fkOYc0XdJDe-270" value="17917917" style="html=1;shadow=0;dashed=0;shape=mxgraph.bootstrap.rrect;rSize=5;strokeColor=#dddddd;;align=left;spacingLeft=10;fontSize=16;whiteSpace=wrap;rounded=0;" vertex="1" parent="1">
          <mxGeometry x="360" y="700" width="160" height="40" as="geometry" />
        </mxCell>
        <mxCell id="UrVs86gc2fkOYc0XdJDe-381" value="FV20101205-0179" style="html=1;shadow=0;dashed=0;shape=mxgraph.bootstrap.rrect;rSize=5;strokeColor=#dddddd;;align=left;spacingLeft=10;fontSize=16;whiteSpace=wrap;rounded=0;" vertex="1" parent="1">
          <mxGeometry x="560" y="540" width="170" height="40" as="geometry" />
        </mxCell>
        <mxCell id="UrVs86gc2fkOYc0XdJDe-382" value="ID of second visit (Edit Locked)" style="html=1;shadow=0;dashed=0;shape=mxgraph.bootstrap.rect;strokeColor=none;fillColor=none;fontColor=#999999;align=left;spacingLeft=5;whiteSpace=wrap;rounded=0;" vertex="1" parent="1">
          <mxGeometry x="560" y="600" width="180" height="20" as="geometry" />
        </mxCell>
        <mxCell id="UrVs86gc2fkOYc0XdJDe-383" value="FV20110116-0020" style="html=1;shadow=0;dashed=0;shape=mxgraph.bootstrap.rrect;rSize=5;strokeColor=#dddddd;;align=left;spacingLeft=10;fontSize=16;whiteSpace=wrap;rounded=0;" vertex="1" parent="1">
          <mxGeometry x="560" y="620" width="170" height="40" as="geometry" />
        </mxCell>
        <mxCell id="UrVs86gc2fkOYc0XdJDe-384" value="ID of last visit (Edit Locked)" style="html=1;shadow=0;dashed=0;shape=mxgraph.bootstrap.rect;strokeColor=none;fillColor=none;fontColor=#999999;align=left;spacingLeft=5;whiteSpace=wrap;rounded=0;" vertex="1" parent="1">
          <mxGeometry x="560" y="680" width="170" height="20" as="geometry" />
        </mxCell>
        <mxCell id="UrVs86gc2fkOYc0XdJDe-385" value="FV20110116-0020" style="html=1;shadow=0;dashed=0;shape=mxgraph.bootstrap.rrect;rSize=5;strokeColor=#dddddd;;align=left;spacingLeft=10;fontSize=16;whiteSpace=wrap;rounded=0;" vertex="1" parent="1">
          <mxGeometry x="560" y="700" width="170" height="40" as="geometry" />
        </mxCell>
        <mxCell id="UrVs86gc2fkOYc0XdJDe-387" value="Household ID" style="html=1;shadow=0;dashed=0;shape=mxgraph.bootstrap.rect;strokeColor=none;fillColor=none;fontColor=#999999;align=left;spacingLeft=5;whiteSpace=wrap;rounded=0;" vertex="1" parent="1">
          <mxGeometry x="38.36" y="760" width="200" height="20" as="geometry" />
        </mxCell>
        <mxCell id="UrVs86gc2fkOYc0XdJDe-388" value="CH20101205-0124" style="html=1;shadow=0;dashed=0;shape=mxgraph.bootstrap.rrect;rSize=5;strokeColor=#dddddd;;align=left;spacingLeft=10;fontSize=16;whiteSpace=wrap;rounded=0;" vertex="1" parent="1">
          <mxGeometry x="40" y="780" width="280" height="40" as="geometry" />
        </mxCell>
        <mxCell id="UrVs86gc2fkOYc0XdJDe-391" value="Is owner" style="html=1;shadow=0;dashed=0;shape=mxgraph.bootstrap.rect;strokeColor=none;fillColor=none;fontColor=#999999;align=left;spacingLeft=5;whiteSpace=wrap;rounded=0;" vertex="1" parent="1">
          <mxGeometry x="360" y="760" width="90" height="20" as="geometry" />
        </mxCell>
        <mxCell id="UrVs86gc2fkOYc0XdJDe-392" value="True" style="shape=ellipse;fillColor=#eeeeee;strokeColor=#999999;gradientColor=#cccccc;html=1;align=left;spacingLeft=4;fontSize=17;fontColor=#666666;labelPosition=right;shadow=0;" vertex="1" parent="1">
          <mxGeometry x="370" y="792.5" width="15" height="15" as="geometry" />
        </mxCell>
        <mxCell id="UrVs86gc2fkOYc0XdJDe-393" value="False" style="shape=ellipse;fillColor=#eeeeee;strokeColor=#999999;gradientColor=#cccccc;html=1;align=left;spacingLeft=4;fontSize=17;fontColor=#666666;labelPosition=right;shadow=0;" vertex="1" parent="1">
          <mxGeometry x="440" y="792.5" width="15" height="15" as="geometry" />
        </mxCell>
        <mxCell id="UrVs86gc2fkOYc0XdJDe-394" value="" style="ellipse;whiteSpace=wrap;html=1;aspect=fixed;strokeColor=none;fillColor=#7A7A7A;" vertex="1" parent="1">
          <mxGeometry x="372.5" y="795" width="10" height="10" as="geometry" />
        </mxCell>
        <mxCell id="UrVs86gc2fkOYc0XdJDe-396" value="Insurance is shared within household" style="html=1;shadow=0;dashed=0;shape=mxgraph.bootstrap.rect;strokeColor=none;fillColor=none;fontColor=#999999;align=left;spacingLeft=5;whiteSpace=wrap;rounded=0;" vertex="1" parent="1">
          <mxGeometry x="560" y="760" width="280" height="20" as="geometry" />
        </mxCell>
        <mxCell id="UrVs86gc2fkOYc0XdJDe-397" value="True" style="shape=ellipse;fillColor=#eeeeee;strokeColor=#999999;gradientColor=#cccccc;html=1;align=left;spacingLeft=4;fontSize=17;fontColor=#666666;labelPosition=right;shadow=0;" vertex="1" parent="1">
          <mxGeometry x="570" y="792.5" width="15" height="15" as="geometry" />
        </mxCell>
        <mxCell id="UrVs86gc2fkOYc0XdJDe-398" value="False" style="shape=ellipse;fillColor=#eeeeee;strokeColor=#999999;gradientColor=#cccccc;html=1;align=left;spacingLeft=4;fontSize=17;fontColor=#666666;labelPosition=right;shadow=0;" vertex="1" parent="1">
          <mxGeometry x="640" y="792.5" width="15" height="15" as="geometry" />
        </mxCell>
        <mxCell id="UrVs86gc2fkOYc0XdJDe-399" value="" style="ellipse;whiteSpace=wrap;html=1;aspect=fixed;strokeColor=none;fillColor=#7A7A7A;" vertex="1" parent="1">
          <mxGeometry x="572.5" y="795" width="10" height="10" as="geometry" />
        </mxCell>
        <mxCell id="UrVs86gc2fkOYc0XdJDe-404" value="Delete" style="html=1;shadow=0;dashed=0;shape=mxgraph.bootstrap.rrect;align=center;rSize=5;strokeColor=none;fillColor=#DB524C;fontColor=#ffffff;fontSize=16;whiteSpace=wrap;rounded=0;" vertex="1" parent="1">
          <mxGeometry x="750" y="910" width="90" height="40" as="geometry" />
        </mxCell>
        <mxCell id="UrVs86gc2fkOYc0XdJDe-406" value="Manage" style="html=1;shadow=0;dashed=0;shape=mxgraph.bootstrap.rrect;align=center;rSize=5;strokeColor=none;fillColor=#3D8BCD;fontColor=#ffffff;fontSize=16;whiteSpace=wrap;rounded=0;" vertex="1" parent="1">
          <mxGeometry x="560" y="910" width="170" height="40" as="geometry" />
        </mxCell>
        <mxCell id="UrVs86gc2fkOYc0XdJDe-407" value="&lt;font style=&quot;font-size: 14px;&quot; face=&quot;Verdana&quot; color=&quot;#006600&quot;&gt;&lt;b&gt;5. Write Reason of change&lt;br&gt;&lt;/b&gt;&lt;/font&gt;" style="text;html=1;align=left;verticalAlign=middle;whiteSpace=wrap;rounded=0;" vertex="1" parent="1">
          <mxGeometry x="40" y="1140" width="390" height="40" as="geometry" />
        </mxCell>
        <mxCell id="UrVs86gc2fkOYc0XdJDe-408" value="&lt;div&gt;Elise Armstrong&lt;/div&gt;" style="html=1;shadow=0;dashed=0;shape=mxgraph.bootstrap.rrect;rSize=5;strokeColor=#dddddd;;align=left;spacingLeft=155;fontSize=16;whiteSpace=wrap;rounded=0;" vertex="1" parent="1">
          <mxGeometry x="40" y="910" width="480" height="40" as="geometry" />
        </mxCell>
        <mxCell id="UrVs86gc2fkOYc0XdJDe-403" value="&lt;font color=&quot;#7a7a7a&quot;&gt;PA2022-43223&lt;/font&gt;" style="html=1;shadow=0;dashed=0;shape=mxgraph.bootstrap.leftButton;strokeColor=#6C757D;gradientColor=inherit;fontColor=inherit;fillColor=inherit;rSize=5;perimeter=none;whiteSpace=wrap;resizeHeight=1;fontSize=14;" vertex="1" parent="1">
          <mxGeometry x="40" y="910" width="140" height="40" as="geometry" />
        </mxCell>
        <mxCell id="UrVs86gc2fkOYc0XdJDe-412" value="&lt;font style=&quot;font-size: 14px;&quot; face=&quot;Verdana&quot; color=&quot;#006600&quot;&gt;&lt;b&gt;4. Manage Patients within household&lt;br&gt;&lt;/b&gt;&lt;/font&gt;" style="text;html=1;align=left;verticalAlign=middle;whiteSpace=wrap;rounded=0;" vertex="1" parent="1">
          <mxGeometry x="40" y="850" width="390" height="40" as="geometry" />
        </mxCell>
        <mxCell id="UrVs86gc2fkOYc0XdJDe-413" value="Delete" style="html=1;shadow=0;dashed=0;shape=mxgraph.bootstrap.rrect;align=center;rSize=5;strokeColor=none;fillColor=#DB524C;fontColor=#ffffff;fontSize=16;whiteSpace=wrap;rounded=0;" vertex="1" parent="1">
          <mxGeometry x="750" y="990" width="90" height="40" as="geometry" />
        </mxCell>
        <mxCell id="UrVs86gc2fkOYc0XdJDe-414" value="Manage" style="html=1;shadow=0;dashed=0;shape=mxgraph.bootstrap.rrect;align=center;rSize=5;strokeColor=none;fillColor=#3D8BCD;fontColor=#ffffff;fontSize=16;whiteSpace=wrap;rounded=0;" vertex="1" parent="1">
          <mxGeometry x="560" y="990" width="170" height="40" as="geometry" />
        </mxCell>
        <mxCell id="UrVs86gc2fkOYc0XdJDe-415" value="&lt;div&gt;Mike Armstrong&lt;/div&gt;" style="html=1;shadow=0;dashed=0;shape=mxgraph.bootstrap.rrect;rSize=5;strokeColor=#dddddd;;align=left;spacingLeft=155;fontSize=16;whiteSpace=wrap;rounded=0;" vertex="1" parent="1">
          <mxGeometry x="40" y="990" width="480" height="40" as="geometry" />
        </mxCell>
        <mxCell id="UrVs86gc2fkOYc0XdJDe-416" value="&lt;font color=&quot;#7a7a7a&quot;&gt;PA2022-43224&lt;/font&gt;" style="html=1;shadow=0;dashed=0;shape=mxgraph.bootstrap.leftButton;strokeColor=#6C757D;gradientColor=inherit;fontColor=inherit;fillColor=inherit;rSize=5;perimeter=none;whiteSpace=wrap;resizeHeight=1;fontSize=14;" vertex="1" parent="1">
          <mxGeometry x="40" y="990" width="140" height="40" as="geometry" />
        </mxCell>
        <mxCell id="UrVs86gc2fkOYc0XdJDe-417" value="Add New" style="html=1;shadow=0;dashed=0;shape=mxgraph.bootstrap.rrect;align=center;rSize=5;strokeColor=#dddddd;fontSize=16;whiteSpace=wrap;rounded=0;" vertex="1" parent="1">
          <mxGeometry x="40" y="1070" width="140" height="40" as="geometry" />
        </mxCell>
        <mxCell id="UrVs86gc2fkOYc0XdJDe-418" value="Household Member (Patient)" style="html=1;shadow=0;dashed=0;shape=mxgraph.bootstrap.rect;strokeColor=none;fillColor=none;fontColor=#999999;align=left;spacingLeft=5;whiteSpace=wrap;rounded=0;" vertex="1" parent="1">
          <mxGeometry x="40" y="890" width="280" height="20" as="geometry" />
        </mxCell>
        <mxCell id="UrVs86gc2fkOYc0XdJDe-419" value="Household Member (Patient)" style="html=1;shadow=0;dashed=0;shape=mxgraph.bootstrap.rect;strokeColor=none;fillColor=none;fontColor=#999999;align=left;spacingLeft=5;whiteSpace=wrap;rounded=0;" vertex="1" parent="1">
          <mxGeometry x="40" y="970" width="280" height="20" as="geometry" />
        </mxCell>
        <mxCell id="UrVs86gc2fkOYc0XdJDe-420" value="Patient ID (Edit Locked)" style="html=1;shadow=0;dashed=0;shape=mxgraph.bootstrap.rect;strokeColor=none;fillColor=none;fontColor=#999999;align=left;spacingLeft=5;whiteSpace=wrap;rounded=0;" vertex="1" parent="1">
          <mxGeometry x="360" y="385" width="160" height="20" as="geometry" />
        </mxCell>
        <mxCell id="UrVs86gc2fkOYc0XdJDe-421" value="PA2010-02130" style="html=1;shadow=0;dashed=0;shape=mxgraph.bootstrap.rrect;rSize=5;strokeColor=#dddddd;;align=left;spacingLeft=10;fontSize=16;whiteSpace=wrap;rounded=0;fontColor=#7A7A7A;" vertex="1" parent="1">
          <mxGeometry x="360" y="405" width="160" height="40" as="geometry" />
        </mxCell>
        <mxCell id="UrVs86gc2fkOYc0XdJDe-422" value="Manage" style="html=1;shadow=0;dashed=0;shape=mxgraph.bootstrap.rrect;align=center;rSize=5;strokeColor=none;fillColor=#3D8BCD;fontColor=#ffffff;fontSize=16;whiteSpace=wrap;rounded=0;" vertex="1" parent="1">
          <mxGeometry x="750" y="540" width="90" height="40" as="geometry" />
        </mxCell>
        <mxCell id="UrVs86gc2fkOYc0XdJDe-423" value="Manage" style="html=1;shadow=0;dashed=0;shape=mxgraph.bootstrap.rrect;align=center;rSize=5;strokeColor=none;fillColor=#3D8BCD;fontColor=#ffffff;fontSize=16;whiteSpace=wrap;rounded=0;" vertex="1" parent="1">
          <mxGeometry x="750" y="620" width="90" height="40" as="geometry" />
        </mxCell>
        <mxCell id="UrVs86gc2fkOYc0XdJDe-426" value="Manage" style="html=1;shadow=0;dashed=0;shape=mxgraph.bootstrap.rrect;align=center;rSize=5;strokeColor=none;fillColor=#3D8BCD;fontColor=#ffffff;fontSize=16;whiteSpace=wrap;rounded=0;" vertex="1" parent="1">
          <mxGeometry x="750" y="700" width="90" height="40" as="geometry" />
        </mxCell>
        <mxCell id="UrVs86gc2fkOYc0XdJDe-427" value="Delete" style="html=1;shadow=0;dashed=0;shape=mxgraph.bootstrap.rrect;align=center;rSize=5;strokeColor=none;fillColor=#DB524C;fontColor=#ffffff;fontSize=16;whiteSpace=wrap;rounded=0;" vertex="1" parent="1">
          <mxGeometry x="750" y="1210" width="90" height="40" as="geometry" />
        </mxCell>
        <mxCell id="UrVs86gc2fkOYc0XdJDe-429" value="Add new household member: Mike" style="html=1;shadow=0;dashed=0;shape=mxgraph.bootstrap.rrect;rSize=5;strokeColor=#dddddd;;align=left;spacingLeft=10;fontSize=16;whiteSpace=wrap;rounded=0;" vertex="1" parent="1">
          <mxGeometry x="40" y="1210" width="480" height="40" as="geometry" />
        </mxCell>
        <mxCell id="UrVs86gc2fkOYc0XdJDe-431" value="Reason 1" style="html=1;shadow=0;dashed=0;shape=mxgraph.bootstrap.rect;strokeColor=none;fillColor=none;fontColor=#999999;align=left;spacingLeft=5;whiteSpace=wrap;rounded=0;" vertex="1" parent="1">
          <mxGeometry x="40" y="1190" width="280" height="20" as="geometry" />
        </mxCell>
        <mxCell id="UrVs86gc2fkOYc0XdJDe-432" value="Clear" style="html=1;shadow=0;dashed=0;shape=mxgraph.bootstrap.rrect;align=center;rSize=5;strokeColor=#dddddd;fontSize=16;whiteSpace=wrap;rounded=0;" vertex="1" parent="1">
          <mxGeometry x="560" y="1210" width="170" height="40" as="geometry" />
        </mxCell>
        <mxCell id="UrVs86gc2fkOYc0XdJDe-433" value="Delete" style="html=1;shadow=0;dashed=0;shape=mxgraph.bootstrap.rrect;align=center;rSize=5;strokeColor=none;fillColor=#DB524C;fontColor=#ffffff;fontSize=16;whiteSpace=wrap;rounded=0;" vertex="1" parent="1">
          <mxGeometry x="750" y="1290" width="90" height="40" as="geometry" />
        </mxCell>
        <mxCell id="UrVs86gc2fkOYc0XdJDe-434" value="Change address" style="html=1;shadow=0;dashed=0;shape=mxgraph.bootstrap.rrect;rSize=5;strokeColor=#dddddd;;align=left;spacingLeft=10;fontSize=16;whiteSpace=wrap;rounded=0;" vertex="1" parent="1">
          <mxGeometry x="40" y="1290" width="480" height="40" as="geometry" />
        </mxCell>
        <mxCell id="UrVs86gc2fkOYc0XdJDe-435" value="Reason 2" style="html=1;shadow=0;dashed=0;shape=mxgraph.bootstrap.rect;strokeColor=none;fillColor=none;fontColor=#999999;align=left;spacingLeft=5;whiteSpace=wrap;rounded=0;" vertex="1" parent="1">
          <mxGeometry x="40" y="1270" width="280" height="20" as="geometry" />
        </mxCell>
        <mxCell id="UrVs86gc2fkOYc0XdJDe-436" value="Clear" style="html=1;shadow=0;dashed=0;shape=mxgraph.bootstrap.rrect;align=center;rSize=5;strokeColor=#dddddd;fontSize=16;whiteSpace=wrap;rounded=0;" vertex="1" parent="1">
          <mxGeometry x="560" y="1290" width="170" height="40" as="geometry" />
        </mxCell>
        <mxCell id="UrVs86gc2fkOYc0XdJDe-437" value="Add New" style="html=1;shadow=0;dashed=0;shape=mxgraph.bootstrap.rrect;align=center;rSize=5;strokeColor=#dddddd;fontSize=16;whiteSpace=wrap;rounded=0;" vertex="1" parent="1">
          <mxGeometry x="40" y="1370" width="140" height="40" as="geometry" />
        </mxCell>
        <mxCell id="UrVs86gc2fkOYc0XdJDe-438" value="&lt;font style=&quot;font-size: 14px;&quot; face=&quot;Verdana&quot; color=&quot;#006600&quot;&gt;&lt;b&gt;6. Submit change request&lt;br&gt;&lt;/b&gt;&lt;/font&gt;" style="text;html=1;align=left;verticalAlign=middle;whiteSpace=wrap;rounded=0;" vertex="1" parent="1">
          <mxGeometry x="40" y="1440" width="390" height="40" as="geometry" />
        </mxCell>
      </root>
    </mxGraphModel>
  </diagram>
</mxfile>
